<svg version="1.1" xmlns="http://www.w3.org/2000/svg" xmlns:xlink="http://www.w3.org/1999/xlink" width="106.1697" height="106.1697" viewBox="0,0,106.1697,106.1697"><g transform="translate(-186.91515,-126.91515)"><g data-paper-data="{&quot;isPaintingLayer&quot;:true}" fill-rule="nonzero" stroke-linecap="butt" stroke-linejoin="miter" stroke-miterlimit="10" stroke-dasharray="" stroke-dashoffset="0" style="mix-blend-mode: normal"><path d="M187.91515,232.08485v-104.1697h104.1697v104.1697z" fill="#9966ff" stroke="#000000" stroke-width="2"/><path d="M235.95535,201.94986c-0.17633,1.70719 -0.84959,3.3182 -1.93161,4.64868c-1.58696,1.95565 -3.43842,3.35026 -5.49827,4.14374c-1.89153,0.72936 -3.99947,0.97783 -6.59632,0.77745c-0.30457,-0.02404 -0.537,-0.03206 -0.70532,-0.04007c-0.03206,0.00801 -0.06412,0.01603 -0.10419,0.02404c-1.3946,0.36869 -2.55677,0.537 -3.66284,0.537c-0.99386,0 -1.8755,-0.16831 -2.63692,-0.39273c-1.10607,0.07213 -1.99573,0.10419 -2.71707,0.10419h-3.3743c-1.53086,-0.06412 -6.09939,-0.24045 -8.90463,-4.11969c-0.3767,-0.49693 -1.07401,-1.47475 -1.61101,-2.82127c-0.23243,-0.47288 -0.44082,-0.9618 -0.60914,-1.48277c-0.4809,-1.44269 -0.58509,-2.98157 -0.28854,-4.47235c1.10607,-5.6746 5.40209,-8.39969 9.63399,-9.24927c-0.04809,-4.16778 -0.18434,-9.25729 -0.41678,-15.23645c-0.00801,-0.2164 -0.00801,-0.44082 0,-0.66524c-1.53887,-0.71333 -2.88539,-1.77932 -3.93535,-3.14988c-1.42666,-1.8194 -2.20412,-4.0716 -2.20412,-6.38793c0,-4.04756 2.22015,-7.51804 6.60433,-10.32328c0.04007,-0.02404 0.07213,-0.04809 0.11221,-0.06412c0.28854,-0.18434 0.49693,-0.32861 0.64921,-0.43281c0.52097,-0.84959 1.18622,-1.61101 1.97168,-2.24419c2.55677,-2.06786 5.54636,-3.1579 8.64014,-3.1579c5.59445,0 10.08283,3.6949 11.18889,9.20118c0.29655,1.4988 0.20037,3.04569 -0.27251,4.48838c-0.08816,1.04195 -0.20839,2.98157 -0.33663,6.5322c-0.00801,0.40876 -0.03206,0.94577 -0.08015,1.86749c-0.03206,0.47288 -0.04809,0.8015 -0.0561,0.98584v7.18943c0.00801,0.24045 0.04007,0.68929 0.08015,1.3385c0.12022,1.73925 0.12824,1.95565 0.12824,2.30831v7.93482c2.24419,0.97783 4.19183,2.69303 5.63452,5.00935c1.75528,2.78921 1.45872,5.61849 1.29842,7.14935z" fill="#00cccc" stroke="none" stroke-width="1"/><path d="M227.18698,201.03535c-0.61154,0.7518 -1.22228,1.24553 -1.83302,1.48117c-0.61154,0.23484 -1.52765,0.30537 -2.74994,0.2116c-1.36335,-0.09458 -2.25541,-0.09458 -2.6794,0c-0.04729,0 -0.38712,0.08175 -1.02191,0.24686c-0.63398,0.16431 -1.11729,0.24766 -1.4451,0.24766c-0.09458,0 -0.27091,-0.08336 -0.52899,-0.24766c-0.25888,-0.16511 -0.45765,-0.24686 -0.59872,-0.24686c-0.23644,0 -0.8584,0.03527 -1.86829,0.1058c-1.01149,0.07053 -1.79776,0.1058 -2.36201,0.1058c-0.98664,0 -1.99813,0 -3.03126,0c-1.22228,-0.04729 -1.9276,-0.2116 -2.11515,-0.49292c-0.42239,-0.56425 -0.63479,-0.98664 -0.63479,-1.26877c-0.14106,-0.14186 -0.25808,-0.35266 -0.35186,-0.63479c0.3759,-1.9268 2.20893,-2.70185 5.49907,-2.32594c2.39648,0.23564 3.80711,0.2116 4.2295,-0.07133c0.18675,-5.02779 0.07053,-13.066 -0.35186,-24.11063c0.18675,-2.06786 0.3751,-5.45178 0.56345,-10.15256c-0.32942,-0.04649 -0.79989,0.16591 -1.40983,0.63479c-0.70532,0.61154 -1.15255,0.9642 -1.3401,1.05717c-0.61154,0.23564 -1.22228,0.35266 -1.83302,0.35266c-0.79909,0 -1.38579,-0.25808 -1.76169,-0.77585c-0.23564,-0.28293 -0.35266,-0.61074 -0.35266,-0.98664c0,-0.84638 0.84638,-1.80898 2.53834,-2.8902c1.97409,-1.22148 3.14828,-2.32675 3.52498,-3.31419c0.98664,-0.79909 2.01977,-1.19904 3.10179,-1.19904c1.40983,0 2.25541,0.70532 2.53754,2.11515c-0.09458,0.18835 -0.18755,0.44804 -0.28213,0.77585c-0.18835,1.45712 -0.35186,4.2295 -0.49372,8.31954c0,0.23564 -0.02404,0.7518 -0.07053,1.5509c-0.04729,0.79989 -0.07053,1.24633 -0.07053,1.3401v7.54289c0,0.09458 0.03527,0.67005 0.1058,1.72723c0.07053,1.05717 0.1066,1.63345 0.1066,1.72723v16.07402c1.26877,0.23564 2.13759,0.25888 2.60807,0.07053c0.61074,-0.23404 1.15175,-0.35186 1.62143,-0.35186c1.08122,0 1.99733,0.61154 2.74994,1.83302c0.09297,0.13946 0.09297,0.65643 0,1.54929z" fill="#ffffff" stroke="none" stroke-width="1"/><path d="M287.72059,175.66397v3.94262c0,2.33788 -0.4073,5.66141 -1.27891,10.45934c-0.35842,2.23198 -1.04268,4.52912 -2.02833,6.83442c-0.01629,0.03258 -0.03258,0.05702 -0.04073,0.0896c-1.75137,3.95076 -4.63502,7.39648 -8.57764,10.23941c-4.20329,3.02213 -8.5532,4.55356 -12.94385,4.55356c-1.77581,0 -3.47016,-0.27696 -5.05861,-0.81459c-5.62882,-1.81654 -10.07649,-5.2704 -13.21266,-10.26384c-0.67611,-1.0997 -1.34407,-2.46006 -2.17496,-4.44767c-0.01629,-0.04888 -0.03258,-0.0896 -0.05702,-0.13848c-1.02638,-2.57411 -1.57216,-4.63502 -1.71879,-6.49229c-0.02444,-0.31769 -0.11404,-1.08341 -0.4073,-2.58225c-0.1059,-0.56207 -0.16292,-1.13228 -0.16292,-1.70249v-3.48645c-0.35842,-1.37666 -0.391,-2.85107 -0.04073,-4.30918c0.13033,-0.56207 0.31769,-1.10784 0.54578,-1.61289c0,-0.9938 0.17106,-1.9876 0.4969,-2.93253c0.0896,-0.4073 0.21179,-0.80644 0.35842,-1.20559c0.00815,-0.00815 0.15477,-0.42359 0.35842,-1.57216c0.24438,-1.40924 0.70055,-3.22578 1.3848,-5.51478c0.00815,-0.02444 0.01629,-0.05702 0.02444,-0.08146c1.32778,-4.26846 4.00779,-8.31697 8.19478,-12.37363c0.03258,-0.03258 0.05702,-0.05702 0.0896,-0.08146c2.11794,-2.00389 4.56171,-3.27465 7.26615,-3.79599c0.48875,-0.0896 0.98565,-0.13848 1.4907,-0.15477c0.30954,-0.00815 1.13228,-0.05702 2.47636,-0.13033c0.04888,0 0.09775,-0.00815 0.14663,-0.00815c3.96706,-0.16292 7.72232,0.68426 11.20062,2.50079c4.01593,2.05277 7.19284,5.14007 9.44925,9.18044c1.06711,1.91429 1.97946,4.23587 2.79405,7.11952c0.95307,3.26651 1.42553,6.14201 1.42553,8.78129z" fill="#00cccc" stroke="none" stroke-width="1"/><path d="M278.75765,179.6074c0,1.76766 -0.38367,4.75395 -1.14694,8.95642c-0.23868,1.52899 -0.71603,3.12966 -1.43368,4.8012c-1.0997,2.4845 -2.97326,4.68227 -5.62393,6.59248c-2.65149,1.91022 -5.21908,2.86573 -7.70277,2.86573c-0.81215,0 -1.55261,-0.11893 -2.22139,-0.35761c-3.63063,-1.14613 -6.4483,-3.31946 -8.45464,-6.5208c-0.38367,-0.6199 -0.88465,-1.67154 -1.50536,-3.15247c-0.66878,-1.67154 -1.0386,-2.96104 -1.11029,-3.86931c-0.07168,-0.90664 -0.25089,-2.10083 -0.53763,-3.58176v-5.30299c0.19061,-0.09449 0.09531,-0.23786 -0.28674,-0.42929h0.4301c0,-0.23868 0.09449,-0.6924 0.28674,-1.36118c0.1898,-0.66878 0.28674,-1.17057 0.28674,-1.50536c0,-0.28674 -0.07168,-0.54903 -0.21505,-0.78852c0.1898,0 0.35761,-0.07168 0.50097,-0.21505c-0.04806,-0.09531 -0.16781,-0.14337 -0.35761,-0.14337c0.04725,-0.04725 0.13115,-0.11893 0.25089,-0.21505c0.11893,-0.09531 0.20283,-0.16699 0.25171,-0.21505c-0.04888,-0.04806 -0.10753,-0.0839 -0.18002,-0.10834c-0.07168,-0.02281 -0.13196,-0.05865 -0.17921,-0.10753c0.28755,-0.76409 0.54903,-1.81491 0.78852,-3.15247c0.1898,-1.09807 0.57347,-2.60262 1.14613,-4.51365c0.86021,-2.76961 2.81848,-5.63615 5.87564,-8.59882c0.86021,-0.81133 1.79128,-1.31312 2.79486,-1.50455c0.14337,0 1.07445,-0.04806 2.79486,-0.14418c2.38838,-0.09449 4.63258,0.40648 6.73504,1.50536c2.43726,1.24225 4.34666,3.10522 5.73227,5.58891c0.71765,1.2895 1.38562,3.03354 2.00634,5.23049c0.71765,2.43563 1.07526,4.53808 1.07526,6.30493v3.9418zM274.02895,171.65455c-0.28511,-0.66796 -0.61909,-1.52817 -0.9995,-2.57981c-0.47735,-2.1497 -1.89392,-4.13079 -4.24972,-5.94733c-2.35661,-1.81491 -4.53401,-2.62624 -6.53383,-2.43563c-0.9042,0.09612 -2.42829,1.60149 -4.57148,4.51446c-1.04756,1.38562 -2.09431,4.15604 -3.14106,8.31127c-0.95226,3.86931 -1.40517,6.85478 -1.35629,8.95642c0.09449,2.67512 0.23786,4.53808 0.42847,5.58809c0.33235,1.95909 1.04675,3.75038 2.14156,5.37467c1.04756,1.43287 1.85727,2.36394 2.42829,2.79486c2.14156,1.52899 4.16419,2.29226 6.06952,2.29226c0.42766,0 0.83251,-0.04725 1.21374,-0.14337c0.9042,-0.14337 1.97457,-0.73965 3.21275,-1.79128c1.04756,-0.95551 1.83283,-1.83853 2.35743,-2.65149c0.71358,-1.19338 1.38073,-2.98466 1.99982,-5.37385c0.95144,-3.48645 1.42879,-7.18876 1.42879,-11.10613c0.00163,-2.10083 -0.14174,-4.03548 -0.42847,-5.80314z" fill="#ffffff" stroke="none" stroke-width="1"/></g></g></svg>