<svg version="1.1" xmlns="http://www.w3.org/2000/svg" xmlns:xlink="http://www.w3.org/1999/xlink" width="106.1697" height="106.1697" viewBox="0,0,106.1697,106.1697"><g transform="translate(-186.91515,-126.91515)"><g data-paper-data="{&quot;isPaintingLayer&quot;:true}" fill-rule="nonzero" stroke-linecap="butt" stroke-linejoin="miter" stroke-miterlimit="10" stroke-dasharray="" stroke-dashoffset="0" style="mix-blend-mode: normal"><path d="M187.91515,232.08485v-104.1697h104.1697v104.1697z" fill="#9966ff" stroke="#000000" stroke-width="2"/><path d="M274.39,207.11c0,3.04 -1.13,5.88 -3.18,8c-0.33,0.34 -0.68,0.66 -1.05,0.95c-0.59,0.47 -1.37,1.08 -2.34,1.82c-4.36,3.65 -8.87,5.51 -13.4,5.51c-1.43,0 -2.9,-0.18 -4.5,-0.55c-0.18,-0.04 -0.36,-0.09 -0.54,-0.14c-3.29,-0.94 -6.29,-2.97 -9.43,-6.38c-2.02,-2.2 -3.5,-4.35 -4.48,-6.51c-4.18,-0.36 -8.2,-1.53 -11.98,-3.5c-5.09,-2.68 -9.09,-6.45 -11.95,-11.25c-0.02,-0.04 -0.04,-0.07 -0.06,-0.11c-1.71,-2.94 -2.97,-6.68 -3.85,-11.42c-0.02,-0.09 -0.03,-0.18 -0.04,-0.26c-0.39,-2.39 -0.59,-4.81 -0.59,-7.21c0,-6.15 1.35,-12.19 4,-17.96c0.02,-0.06 0.05,-0.12 0.08,-0.17c1.98,-4.13 4.94,-8.1 9.07,-12.15c6,-5.91 11.77,-8.78 17.65,-8.78c1.33,0 3.33,0.14 8.84,1.15c5.01,0.96 10,3.55 15.36,7.93c0.06,0.05 0.13,0.11 0.19,0.16c2.69,2.3 4.82,5.64 6.91,10.83c1.94,4.84 2.92,9.86 2.92,14.94c0,3.64 -0.5,7.47 -1.48,11.38c0,0.03 -0.01,0.07 -0.02,0.1c-0.99,3.8 -1.96,6.41 -3.15,8.46c-0.05,0.08 -0.09,0.16 -0.14,0.24c-0.43,0.69 -0.87,1.36 -1.32,2.02c0.84,0.32 1.65,0.71 2.43,1.17c2.35,1.41 4.05,3.62 4.85,6.16c0.02,0.05 0.04,0.1 0.06,0.15c0.78,1.97 1.14,3.68 1.14,5.42z" fill="#00cccc" stroke="none" stroke-width="1"/><path d="M263.303,207.461c-0.587,0.468 -1.378,1.084 -2.375,1.847c-2.405,2.052 -4.574,3.079 -6.509,3.079c-0.587,0 -1.262,-0.089 -2.023,-0.265c-1.231,-0.352 -2.683,-1.438 -4.354,-3.254c-1.671,-1.818 -2.654,-3.402 -2.946,-4.75c0.058,0 0.146,-0.06 0.264,-0.176c-0.411,-0.587 -0.88,-2.521 -1.407,-5.806c-1.76,0.527 -3.666,0.792 -5.718,0.792c-3.401,0 -6.627,-0.792 -9.676,-2.376c-3.226,-1.7 -5.748,-4.074 -7.564,-7.124c-1.056,-1.817 -1.906,-4.456 -2.551,-7.917c-0.294,-1.816 -0.44,-3.635 -0.44,-5.453c0,-4.574 0.997,-9.03 2.991,-13.37c1.407,-2.932 3.694,-5.951 6.86,-9.061c3.812,-3.752 7.125,-5.629 9.94,-5.629c1.055,0 3.342,0.323 6.86,0.968c3.049,0.587 6.509,2.463 10.379,5.629c1.231,1.056 2.521,3.255 3.871,6.598c1.407,3.518 2.11,7.124 2.11,10.818c0,2.758 -0.382,5.66 -1.144,8.708c-0.703,2.698 -1.378,4.604 -2.022,5.718c-2.229,3.637 -5.044,6.656 -8.444,9.061c0,3.108 0.439,5.776 1.319,8.004c1.113,2.932 2.756,4.251 4.926,3.959c0.117,0 0.908,-0.646 2.375,-1.936c0.88,-0.822 1.816,-1.231 2.814,-1.231c0.645,0 1.261,0.176 1.848,0.527c0,0.058 0.116,0.381 0.352,0.968c0.233,0.586 0.352,1.025 0.352,1.319c0,0.176 -0.03,0.293 -0.088,0.353zM256.09,172.979c-0.059,-1.641 -0.264,-3.899 -0.615,-6.772c-0.118,-0.117 -0.323,-0.732 -0.616,-1.848c-1.35,-4.632 -3.694,-7.564 -7.036,-8.796c-0.88,-0.586 -2.142,-1.261 -3.782,-2.023c-2.758,-0.82 -5.601,-1.025 -8.532,-0.615c-1.702,0.235 -4.077,2.229 -7.125,5.981c-2.639,3.342 -4.341,6.509 -5.102,9.499c-0.471,1.818 -0.704,3.666 -0.704,5.542c0,1.936 0.233,3.958 0.704,6.069c0.176,1.35 0.645,3.313 1.407,5.894c1.056,2.405 3.137,4.545 6.245,6.421c0.058,-0.82 0.527,-2.315 1.407,-4.486c0.996,-1.583 1.76,-2.551 2.287,-2.902c1.524,-1.056 3.167,-1.583 4.926,-1.583c4.163,0 7.271,2.198 9.324,6.597c0.82,-0.938 1.816,-2.111 2.99,-3.519c0.645,-0.645 1.275,-1.744 1.891,-3.299c0.616,-1.553 1.1,-2.477 1.452,-2.771c-0.06,-0.293 -0.089,-0.585 -0.089,-0.88c0,-0.292 0.146,-1.099 0.44,-2.418c0.294,-1.32 0.47,-2.684 0.528,-4.091zM243.424,193.298c-0.527,-2.052 -1.174,-3.4 -1.935,-4.047c-0.528,-0.409 -1.174,-0.615 -1.936,-0.615c-1.583,0 -2.551,0.733 -2.902,2.199c-0.118,0.234 -0.265,0.499 -0.44,0.791c-0.176,0.587 -0.352,1.408 -0.527,2.463c2.99,0.471 5.57,0.207 7.74,-0.791z" fill="#ffffff" stroke="none" stroke-width="1"/></g></g></svg>